<svg width="205" height="189" viewBox="0 0 205 189" fill="none" xmlns="http://www.w3.org/2000/svg">
<path d="M39.9029 169.157C37.8306 167.698 35.8395 166.163 33.9297 164.592L87.6483 187.757C85.0883 187.42 82.5285 187.009 80.0092 186.485L39.9029 169.157Z" fill="#5DC9BE" fill-opacity="0.5"/>
<path d="M23.4472 154.524L20.7246 151.381L107.113 188.805C105.65 188.805 104.188 188.805 102.725 188.805L23.4472 154.524Z" fill="#5DC9BE" fill-opacity="0.5"/>
<path d="M14.7495 143.26C14.1807 142.361 13.5712 141.426 13.043 140.528L121.09 187.158L117.676 187.682L14.7495 143.26Z" fill="#5DC9BE" fill-opacity="0.5"/>
<path d="M9.06112 133.267C8.65478 132.444 8.24852 131.621 7.88281 130.76L132.508 184.576L129.664 185.324L9.06112 133.267Z" fill="#5DC9BE" fill-opacity="0.5"/>
<path d="M5.16039 124.061C4.87595 123.275 4.59146 122.489 4.34766 121.703L142.504 181.283L140.026 182.218L5.16039 124.061Z" fill="#5DC9BE" fill-opacity="0.5"/>
<path d="M2.5185 115.379C2.5185 114.668 2.15277 113.919 1.99023 113.171L150.956 177.652L148.761 178.7L2.5185 115.379Z" fill="#5DC9BE" fill-opacity="0.5"/>
<path d="M0.893845 107.145C0.893845 106.471 0.690644 105.76 0.609375 105.049L158.636 173.273L156.686 174.434L0.893845 107.145Z" fill="#5DC9BE" fill-opacity="0.5"/>
<path d="M0.0820312 99.2863C0.0820312 98.6126 0.0820312 97.939 0.0820312 97.2654L165.626 168.708L163.838 169.943L0.0820312 99.2863Z" fill="#5DC9BE" fill-opacity="0.5"/>
<path d="M0 91.5767C0 90.9031 0 90.2669 0 89.5933L171.639 163.73L170.095 165.04L0 91.5767Z" fill="#5DC9BE" fill-opacity="0.5"/>
<path d="M0.527344 84.4286C0.527344 83.7924 0.527418 83.1562 0.73059 82.52L177.327 158.94L175.905 160.325L0.527344 84.4286Z" fill="#5DC9BE" fill-opacity="0.5"/>
<path d="M1.625 77.3554L1.99069 75.5591L182.367 153.401L181.066 154.861L1.625 77.3554Z" fill="#5DC9BE" fill-opacity="0.5"/>
<path d="M3.25195 70.5446C3.25195 69.9832 3.61768 69.3844 3.78022 68.7856L186.635 147.825C186.269 148.312 185.903 148.836 185.497 149.322L3.25195 70.5446Z" fill="#5DC9BE" fill-opacity="0.5"/>
<path d="M5.44531 63.9575C5.64848 63.3962 5.85167 62.8348 6.09548 62.2734L190.819 142.024L189.844 143.559L5.44531 63.9575Z" fill="#5DC9BE" fill-opacity="0.5"/>
<path d="M8.08594 57.5955C8.32974 57.0341 8.57356 56.4727 8.858 55.9114L194.354 135.999C194.069 136.56 193.744 137.084 193.46 137.608L8.08594 57.5955Z" fill="#5DC9BE" fill-opacity="0.5"/>
<path d="M11.2148 51.4205C11.4993 50.8592 11.8244 50.3352 12.1088 49.8113L197.361 129.787L196.629 131.433L11.2148 51.4205Z" fill="#5DC9BE" fill-opacity="0.5"/>
<path d="M14.832 45.4328L15.8479 43.8984L199.921 123.35C199.718 123.949 199.515 124.51 199.271 125.071L14.832 45.4328Z" fill="#5DC9BE" fill-opacity="0.5"/>
<path d="M18.8945 39.6693L20.073 38.2097L201.952 116.8L201.465 118.559L18.8945 39.6693Z" fill="#5DC9BE" fill-opacity="0.5"/>
<path d="M23.5273 34.1308C23.9743 33.6817 24.3807 33.1953 24.8277 32.7087L203.619 109.84L203.253 111.674L23.5273 34.1308Z" fill="#5DC9BE" fill-opacity="0.5"/>
<path d="M28.6875 28.854L30.1097 27.4692L204.472 102.804C204.472 103.403 204.472 104.039 204.269 104.675L28.6875 28.854Z" fill="#5DC9BE" fill-opacity="0.5"/>
<path d="M34.6211 23.8016L36.2059 22.4917L204.879 95.3191C204.879 95.9927 204.879 96.6289 204.879 97.3026L34.6211 23.8016Z" fill="#5DC9BE" fill-opacity="0.5"/>
<path d="M40.7559 19.0111L42.5438 17.8135L204.593 87.8341C204.593 88.5077 204.593 89.1814 204.593 89.8924L40.7559 19.0111Z" fill="#5DC9BE" fill-opacity="0.5"/>
<path d="M47.8262 14.5204L49.8172 13.3977L203.618 79.8255L203.984 81.9587L47.8262 14.5204Z" fill="#5DC9BE" fill-opacity="0.5"/>
<path d="M55.709 10.4035L57.9438 9.39307L201.79 71.4798C201.993 72.2282 202.196 72.9767 202.358 73.7252L55.709 10.4035Z" fill="#5DC9BE" fill-opacity="0.5"/>
<path d="M64.5684 6.69898L67.0877 5.80078L198.906 62.7229L199.799 65.0806L64.5684 6.69898Z" fill="#5DC9BE" fill-opacity="0.5"/>
<path d="M74.6855 3.55506L77.6112 2.84399L194.638 53.3666C195.085 54.1899 195.532 55.0507 195.939 55.9115L74.6855 3.55506Z" fill="#5DC9BE" fill-opacity="0.5"/>
<path d="M86.5527 1.15976C87.7311 0.972644 88.9502 0.822966 90.1286 0.710693L188.423 43.1497C189.073 44.0853 189.723 45.0209 190.333 45.9565L86.5527 1.15976Z" fill="#5DC9BE" fill-opacity="0.5"/>
<path d="M101.342 0H106.096L178.75 31.3614C179.807 32.4467 180.823 33.5695 181.838 34.6922L101.342 0Z" fill="#5DC9BE" fill-opacity="0.5"/>
<path d="M123.447 2.021C127.1 2.73944 130.708 3.63888 134.256 4.71548L156.889 14.4832C160.049 16.3035 163.101 18.2773 166.032 20.3962L123.447 2.021Z" fill="#5DC9BE" fill-opacity="0.5"/>
</svg>
