<svg width="185" height="283" viewBox="0 0 185 283" fill="none" xmlns="http://www.w3.org/2000/svg">
<path d="M-42.953 253.375C-45.8119 251.189 -48.5587 248.891 -51.1934 246.537L22.9133 281.236C19.3818 280.731 15.8503 280.114 12.3748 279.33L-42.953 253.375Z" fill="#5DC9BE" fill-opacity="0.5"/>
<path d="M-65.6543 231.457L-69.4102 226.748L49.766 282.805C47.748 282.805 45.73 282.805 43.712 282.805L-65.6543 231.457Z" fill="#5DC9BE" fill-opacity="0.5"/>
<path d="M-77.6516 214.584C-78.4364 213.239 -79.2771 211.837 -80.0059 210.492L69.0483 280.338L64.3396 281.123L-77.6516 214.584Z" fill="#5DC9BE" fill-opacity="0.5"/>
<path d="M-85.5014 199.617C-86.062 198.384 -86.6224 197.15 -87.127 195.861L84.7982 276.47L80.8743 277.592L-85.5014 199.617Z" fill="#5DC9BE" fill-opacity="0.5"/>
<path d="M-90.8808 185.827C-91.2732 184.65 -91.6656 183.473 -92.002 182.296L98.5901 271.537L95.1707 272.939L-90.8808 185.827Z" fill="#5DC9BE" fill-opacity="0.5"/>
<path d="M-94.5251 172.822C-94.5251 171.757 -95.0297 170.636 -95.2539 169.515L110.249 266.1L107.222 267.67L-94.5251 172.822Z" fill="#5DC9BE" fill-opacity="0.5"/>
<path d="M-96.7677 160.489C-96.7677 159.48 -97.048 158.415 -97.1602 157.35L120.843 259.541L118.153 261.279L-96.7677 160.489Z" fill="#5DC9BE" fill-opacity="0.5"/>
<path d="M-97.8887 148.718C-97.8887 147.709 -97.8887 146.7 -97.8887 145.691L130.485 252.703L128.019 254.552L-97.8887 148.718Z" fill="#5DC9BE" fill-opacity="0.5"/>
<path d="M-98 137.17C-98 136.161 -98 135.208 -98 134.199L138.783 245.247L136.652 247.209L-98 137.17Z" fill="#5DC9BE" fill-opacity="0.5"/>
<path d="M-97.2715 126.463C-97.2715 125.51 -97.2714 124.557 -96.9911 123.604L146.63 238.072L144.668 240.146L-97.2715 126.463Z" fill="#5DC9BE" fill-opacity="0.5"/>
<path d="M-95.7598 115.868L-95.2553 113.178L153.579 229.775L151.786 231.961L-95.7598 115.868Z" fill="#5DC9BE" fill-opacity="0.5"/>
<path d="M-93.5156 105.666C-93.5156 104.826 -93.0111 103.929 -92.7869 103.032L159.467 221.423C158.963 222.152 158.458 222.937 157.898 223.665L-93.5156 105.666Z" fill="#5DC9BE" fill-opacity="0.5"/>
<path d="M-90.4863 95.8001C-90.206 94.9593 -89.9257 94.1184 -89.5894 93.2776L165.243 212.734L163.898 215.032L-90.4863 95.8001Z" fill="#5DC9BE" fill-opacity="0.5"/>
<path d="M-86.8438 86.2705C-86.5074 85.4297 -86.1711 84.5889 -85.7787 83.748L170.119 203.709C169.727 204.55 169.278 205.335 168.886 206.119L-86.8438 86.2705Z" fill="#5DC9BE" fill-opacity="0.5"/>
<path d="M-82.5293 77.0212C-82.1369 76.1803 -81.6884 75.3955 -81.296 74.6107L174.265 194.403L173.256 196.87L-82.5293 77.0212Z" fill="#5DC9BE" fill-opacity="0.5"/>
<path d="M-77.5391 68.0525L-76.1377 65.7542L177.798 184.762C177.518 185.659 177.238 186.5 176.901 187.341L-77.5391 68.0525Z" fill="#5DC9BE" fill-opacity="0.5"/>
<path d="M-71.9336 59.4194L-70.3079 57.2332L180.601 174.952L179.928 177.587L-71.9336 59.4194Z" fill="#5DC9BE" fill-opacity="0.5"/>
<path d="M-65.543 51.1234C-64.9263 50.4507 -64.3657 49.7221 -63.7491 48.9933L182.899 164.526L182.395 167.272L-65.543 51.1234Z" fill="#5DC9BE" fill-opacity="0.5"/>
<path d="M-58.4238 43.2194L-56.4618 41.1453L184.076 153.987C184.076 154.884 184.076 155.837 183.796 156.79L-58.4238 43.2194Z" fill="#5DC9BE" fill-opacity="0.5"/>
<path d="M-50.2383 35.6517L-48.052 33.6897L184.638 142.776C184.638 143.785 184.638 144.738 184.638 145.747L-50.2383 35.6517Z" fill="#5DC9BE" fill-opacity="0.5"/>
<path d="M-41.7754 28.4762L-39.3089 26.6823L184.244 131.564C184.244 132.573 184.244 133.582 184.244 134.647L-41.7754 28.4762Z" fill="#5DC9BE" fill-opacity="0.5"/>
<path d="M-32.0215 21.7496L-29.2748 20.0679L182.899 119.568L183.404 122.763L-32.0215 21.7496Z" fill="#5DC9BE" fill-opacity="0.5"/>
<path d="M-21.1465 15.583L-18.0634 14.0695L180.377 107.067C180.657 108.188 180.937 109.309 181.161 110.431L-21.1465 15.583Z" fill="#5DC9BE" fill-opacity="0.5"/>
<path d="M-8.92578 10.0343L-5.45031 8.6889L176.397 93.9508L177.63 97.4824L-8.92578 10.0343Z" fill="#5DC9BE" fill-opacity="0.5"/>
<path d="M5.03125 5.32501L9.06732 4.25992L170.51 79.9362C171.127 81.1694 171.743 82.4588 172.304 83.7481L5.03125 5.32501Z" fill="#5DC9BE" fill-opacity="0.5"/>
<path d="M21.4023 1.73729C23.028 1.457 24.7097 1.23281 26.3353 1.06464L161.936 64.6327C162.833 66.0341 163.73 67.4355 164.571 68.8369L21.4023 1.73729Z" fill="#5DC9BE" fill-opacity="0.5"/>
<path d="M42 0H48.5585L148.788 46.9754C150.245 48.601 151.646 50.2827 153.048 51.9644L42 0Z" fill="#5DC9BE" fill-opacity="0.5"/>
<path d="M72.2988 3.02707C77.3382 4.10321 82.3158 5.45044 87.2099 7.06306L118.433 21.6938C122.792 24.4204 127.002 27.3769 131.046 30.5507L72.2988 3.02707Z" fill="#5DC9BE" fill-opacity="0.5"/>
</svg>
