<svg width="103" height="30" viewBox="0 0 103 30" fill="none" xmlns="http://www.w3.org/2000/svg">
<path d="M0.4 29V0.999998H5.2V24.4H18.8V29H0.4ZM33.7113 29.48C31.9779 29.48 30.4046 29.2 28.9913 28.64C27.5779 28.08 26.4046 27.3333 25.4713 26.4C24.5646 25.44 23.7913 24.3333 23.1513 23.08C22.5379 21.8267 22.0979 20.5333 21.8313 19.2C21.5646 17.84 21.4313 16.44 21.4313 15C21.4313 13.56 21.5646 12.1733 21.8313 10.84C22.0979 9.48 22.5379 8.17333 23.1513 6.92C23.7913 5.66667 24.5646 4.57333 25.4713 3.64C26.4046 2.68 27.5779 1.92 28.9913 1.36C30.4046 0.799999 31.9779 0.52 33.7113 0.52C35.8713 0.52 37.7646 0.946666 39.3913 1.8C41.0446 2.62667 42.3246 3.76 43.2313 5.2C44.1646 6.61333 44.8579 8.14666 45.3113 9.8C45.7646 11.4533 45.9913 13.1867 45.9913 15C45.9913 16.8133 45.7646 18.5467 45.3113 20.2C44.8579 21.8533 44.1646 23.4 43.2313 24.84C42.3246 26.2533 41.0446 27.3867 39.3913 28.24C37.7646 29.0667 35.8713 29.48 33.7113 29.48ZM33.7113 24.88C34.9913 24.88 36.1246 24.5733 37.1113 23.96C38.0979 23.3467 38.8579 22.5467 39.3913 21.56C39.9513 20.5467 40.3646 19.4933 40.6313 18.4C40.8979 17.28 41.0313 16.1467 41.0313 15C41.0313 13.7733 40.8979 12.6133 40.6313 11.52C40.3646 10.4 39.9513 9.34667 39.3913 8.36C38.8579 7.37333 38.0979 6.58667 37.1113 6C36.1513 5.41333 35.0179 5.12 33.7113 5.12C32.0046 5.12 30.5779 5.66667 29.4313 6.76C28.2846 7.82667 27.4846 9.06667 27.0313 10.48C26.6046 11.8933 26.3913 13.4 26.3913 15C26.3913 16.2 26.5246 17.36 26.7913 18.48C27.0579 19.6 27.4579 20.6533 27.9913 21.64C28.5513 22.6267 29.3113 23.4133 30.2713 24C31.2579 24.5867 32.4046 24.88 33.7113 24.88ZM63.0863 29.48C61.0063 29.48 59.1529 29.08 57.5263 28.28C55.9263 27.4533 54.6463 26.3467 53.6862 24.96C52.7263 23.5733 52.0063 22.04 51.5263 20.36C51.0463 18.68 50.8063 16.8933 50.8063 15C50.8063 13.6133 50.9529 12.24 51.2463 10.88C51.5663 9.52 52.0596 8.21333 52.7263 6.96C53.3929 5.70667 54.1929 4.61333 55.1263 3.68C56.0596 2.72 57.2063 1.96 58.5663 1.4C59.9529 0.813332 61.4596 0.52 63.0863 0.52C65.5396 0.52 67.5129 1.02667 69.0063 2.04C70.4996 3.02667 71.7929 4.4 72.8863 6.16L68.6062 8.6C67.0596 6.30667 65.2196 5.16 63.0863 5.16C61.7529 5.16 60.5796 5.46667 59.5663 6.08C58.5796 6.66667 57.8196 7.46667 57.2863 8.48C56.7529 9.46667 56.3663 10.5067 56.1263 11.6C55.8863 12.6933 55.7663 13.8267 55.7663 15C55.7663 17.7733 56.3796 20.1067 57.6063 22C58.8329 23.8933 60.6596 24.84 63.0863 24.84C64.6329 24.84 65.9129 24.3333 66.9263 23.32C67.9663 22.3067 68.4863 21.0667 68.4863 19.6V19.16H63.5663V14.64H73.3663V18.52C73.3663 21.96 72.4063 24.6533 70.4863 26.6C68.5663 28.52 66.0996 29.48 63.0863 29.48ZM90.3519 29.48C88.6185 29.48 87.0452 29.2 85.6319 28.64C84.2185 28.08 83.0452 27.3333 82.1119 26.4C81.2052 25.44 80.4319 24.3333 79.7919 23.08C79.1785 21.8267 78.7385 20.5333 78.4719 19.2C78.2052 17.84 78.0719 16.44 78.0719 15C78.0719 13.56 78.2052 12.1733 78.4719 10.84C78.7385 9.48 79.1785 8.17333 79.7919 6.92C80.4319 5.66667 81.2052 4.57333 82.1119 3.64C83.0452 2.68 84.2185 1.92 85.6319 1.36C87.0452 0.799999 88.6185 0.52 90.3519 0.52C92.5119 0.52 94.4052 0.946666 96.0319 1.8C97.6852 2.62667 98.9652 3.76 99.8719 5.2C100.805 6.61333 101.499 8.14666 101.952 9.8C102.405 11.4533 102.632 13.1867 102.632 15C102.632 16.8133 102.405 18.5467 101.952 20.2C101.499 21.8533 100.805 23.4 99.8719 24.84C98.9652 26.2533 97.6852 27.3867 96.0319 28.24C94.4052 29.0667 92.5119 29.48 90.3519 29.48ZM90.3519 24.88C91.6319 24.88 92.7652 24.5733 93.7519 23.96C94.7385 23.3467 95.4985 22.5467 96.0319 21.56C96.5919 20.5467 97.0052 19.4933 97.2719 18.4C97.5385 17.28 97.6719 16.1467 97.6719 15C97.6719 13.7733 97.5385 12.6133 97.2719 11.52C97.0052 10.4 96.5919 9.34667 96.0319 8.36C95.4985 7.37333 94.7385 6.58667 93.7519 6C92.7919 5.41333 91.6585 5.12 90.3519 5.12C88.6452 5.12 87.2185 5.66667 86.0719 6.76C84.9252 7.82667 84.1252 9.06667 83.6719 10.48C83.2452 11.8933 83.0319 13.4 83.0319 15C83.0319 16.2 83.1652 17.36 83.4319 18.48C83.6985 19.6 84.0985 20.6533 84.6319 21.64C85.1919 22.6267 85.9519 23.4133 86.9119 24C87.8985 24.5867 89.0452 24.88 90.3519 24.88Z" fill="#233D63"/>
</svg>
